<svg xmlns="http://www.w3.org/2000/svg" width="46" height="30" viewBox="0 0 56 52.435">
  <path id="Path_1445" data-name="Path 1445" d="M345.321,2043.825,331.2,2030.677a18.958,18.958,0,0,0,3.259-10.45c0-11.125-9.778-20.227-21.728-20.227S291,2009.1,291,2020.227s9.778,20.227,21.728,20.227a22.615,22.615,0,0,0,11.226-3.034l14.123,13.148a2.909,2.909,0,0,0,3.621,0l3.621-3.371A2.432,2.432,0,0,0,345.321,2043.825Zm-32.593-10.113c-7.967,0-14.486-6.068-14.486-13.484s6.519-13.485,14.486-13.485,14.486,6.068,14.486,13.485S320.7,2033.712,312.728,2033.712Z" transform="translate(-290.5 -1999.5)" fill="#2680eb" stroke="#2680eb" stroke-width="1"/>
</svg>
